<?xml version="1.0" encoding="utf-8"?>
<!-- Generator: Adobe Illustrator 25.1.0, SVG Export Plug-In . SVG Version: 6.00 Build 0)  -->
<svg version="1.1" xmlns="http://www.w3.org/2000/svg" xmlns:xlink="http://www.w3.org/1999/xlink" x="0px" y="0px"
	 viewBox="0 0 52 52" style="enable-background:new 0 0 52 52;" xml:space="preserve">
<style type="text/css">
	.st0{fill:#29ABE2;stroke:#29ABE2;stroke-miterlimit:10;}
	.st1{fill:none;}
	.st2{fill:#2B97E0;}
	.st3{fill:#2CBADB;}
	.st4{fill:#FFFFFF;}
</style>
<g id="Layer_1">
	<path class="st0" d="M48.04,26c0,0.72-0.03,1.42-0.1,2.12c-0.83,8.63-6.62,15.8-14.49,18.62c-2.33,0.84-4.84,1.3-7.45,1.3
		c-6.9,0-13.05-3.17-17.09-8.13C5.82,36.12,3.96,31.27,3.96,26C3.96,13.83,13.83,3.96,26,3.96c1.09,0,2.15,0.08,3.2,0.23
		C39.85,5.74,48.04,14.92,48.04,26z"/>
</g>
<g id="Layer_2">
	<path class="st0" d="M26,3.96H9.96c-3.31,0-6,2.69-6,6V26H26V3.96z"/>
</g>
<g id="Layer_3">
	<path class="st1" d="M53.19,16.63c0,4.59-2.03,8.71-5.25,11.49c0.07-0.7,0.1-1.4,0.1-2.12c0-11.08-8.19-20.26-18.84-21.81
		c2.48-1.75,5.51-2.78,8.77-2.78C46.38,1.41,53.19,8.22,53.19,16.63z"/>
	<path class="st2" d="M48.44,25.77c0,0.72-0.03,1.42-0.1,2.12c-2.66,2.33-6.15,3.73-9.97,3.73c-4.87,0-9.2-2.29-11.98-5.85
		c-2.03-2.58-3.24-5.83-3.24-9.37c0-3.55,1.22-6.81,3.25-9.39c0.91-1.17,1.99-2.2,3.2-3.05C40.25,5.51,48.44,14.69,48.44,25.77z"/>
	<path class="st1" d="M34.16,51.35c0,8.41-6.82,15.22-15.22,15.22c-8.41,0-15.23-6.81-15.23-15.22c0-4.57,2.01-8.66,5.2-11.44
		c4.04,4.96,10.19,8.13,17.09,8.13c2.61,0,5.12-0.46,7.45-1.3C33.91,48.19,34.16,49.74,34.16,51.35z"/>
	<path class="st3" d="M33.45,47.32c-2.33,0.84-4.84,1.3-7.45,1.3c-6.9,0-13.05-3.17-17.09-8.13c2.68-2.36,6.19-3.78,10.03-3.78
		C25.74,36.71,31.5,41.17,33.45,47.32z"/>
</g>
<g id="Layer_4">
	<g>
		<path class="st4" d="M29.88,33.8c-0.41,0.46-0.91,0.66-1.52,0.61c-0.91-0.05-1.52-0.48-1.82-1.29c-1.57,0.81-3.29,0.91-5.17,0.3
			c-0.46-0.2-0.89-0.43-1.29-0.68c-1.67-1.06-2.74-2.66-3.19-4.79c-0.71-3.34-0.28-6.18,1.29-8.51c1.42-1.92,3.27-2.89,5.55-2.89
			c0.96,0,1.92,0.25,2.89,0.76c0.46,0.25,0.89,0.56,1.29,0.91c1.52,1.37,2.36,3.24,2.51,5.62v7.75
			C30.41,32.61,30.23,33.34,29.88,33.8z M22.73,20.8c-1.01,0.3-1.62,0.96-1.82,1.98c-0.41,1.52-0.41,3.07,0,4.64
			c0,0.2,0.05,0.41,0.15,0.61c0.4,0.96,1.11,1.52,2.13,1.67c0.61,0.05,1.09,0.03,1.44-0.08c1.01-0.41,1.6-1.44,1.75-3.12
			c0.05-2.33-0.1-3.82-0.46-4.48c-0.56-0.91-1.34-1.37-2.36-1.37C23.31,20.65,23.04,20.7,22.73,20.8z"/>
	</g>
</g>
</svg>
