<?xml version="1.0" encoding="utf-8"?>
<!-- Generator: Adobe Illustrator 25.1.0, SVG Export Plug-In . SVG Version: 6.00 Build 0)  -->
<svg version="1.1" id="Layer_1" xmlns="http://www.w3.org/2000/svg" xmlns:xlink="http://www.w3.org/1999/xlink" x="0px" y="0px"
	 viewBox="0 0 600 600" style="enable-background:new 0 0 600 600;" xml:space="preserve">
<style type="text/css">
	.st0{fill:#29ABE2;}
</style>
<g>
	<path class="st0" d="M101.74,324.02c-0.94,1.06-2.11,1.52-3.52,1.41c-2.11-0.12-3.52-1.12-4.22-2.99
		c-3.64,1.88-7.63,2.11-11.97,0.7c-1.06-0.47-2.05-1-2.99-1.58c-3.87-2.46-6.34-6.16-7.39-11.09c-1.64-7.74-0.65-14.31,2.99-19.71
		c3.28-4.46,7.57-6.69,12.85-6.69c2.23,0,4.46,0.59,6.69,1.76c1.06,0.59,2.05,1.29,2.99,2.11c3.52,3.17,5.46,7.51,5.81,13.02v17.95
		C102.97,321.27,102.56,322.97,101.74,324.02z M85.2,293.93c-2.35,0.7-3.76,2.23-4.22,4.58c-0.94,3.52-0.94,7.1,0,10.74
		c0,0.47,0.12,0.94,0.35,1.41c0.94,2.23,2.58,3.52,4.93,3.87c1.41,0.12,2.52,0.06,3.34-0.18c2.35-0.94,3.7-3.34,4.05-7.21
		c0.12-5.4-0.23-8.86-1.06-10.38c-1.29-2.11-3.11-3.17-5.46-3.17C86.54,293.58,85.9,293.69,85.2,293.93z"/>
	<path class="st0" d="M111.07,299.56c0-4.11,1.23-7.68,3.7-10.74c2.93-3.75,7.22-5.63,12.85-5.63c8.45,0.82,13.67,4.63,15.66,11.44
		c0.35,1.53,0.59,3.17,0.7,4.93v20.06c0,1.88-0.88,3.23-2.64,4.05c-0.7,0.35-1.35,0.53-1.94,0.53c-2,0-3.34-0.94-4.05-2.82
		c-0.24-0.59-0.35-1.17-0.35-1.76v-20.06c-0.24-4.34-2.7-6.75-7.39-7.22c-3.99,0-6.4,1.88-7.22,5.63c-0.12,0.59-0.18,1.12-0.18,1.58
		v20.06c0,1.88-0.94,3.23-2.82,4.05c-0.47,0.35-1.06,0.53-1.76,0.53c-2,0-3.4-0.94-4.22-2.82c-0.24-0.59-0.35-1.17-0.35-1.76V299.56
		z"/>
	<path class="st0" d="M152.08,299.56c0-4.11,1.23-7.68,3.7-10.74c2.93-3.75,7.22-5.63,12.85-5.63c8.45,0.82,13.67,4.63,15.66,11.44
		c0.35,1.53,0.59,3.17,0.7,4.93v20.06c0,1.88-0.88,3.23-2.64,4.05c-0.7,0.35-1.35,0.53-1.94,0.53c-2,0-3.34-0.94-4.05-2.82
		c-0.24-0.59-0.35-1.17-0.35-1.76v-20.06c-0.24-4.34-2.7-6.75-7.39-7.22c-3.99,0-6.4,1.88-7.22,5.63c-0.12,0.59-0.18,1.12-0.18,1.58
		v20.06c0,1.88-0.94,3.23-2.82,4.05c-0.47,0.35-1.06,0.53-1.76,0.53c-2,0-3.4-0.94-4.22-2.82c-0.24-0.59-0.35-1.17-0.35-1.76V299.56
		z"/>
	<path class="st0" d="M220.01,285.3c5.28,3.99,7.92,9.97,7.92,17.95c0,8.57-2.64,14.61-7.92,18.13c-2.93,1.88-6.22,2.82-9.86,2.82
		c-4.11,0-7.74-1.17-10.91-3.52c-4.46-3.75-6.63-9.56-6.51-17.42c0-8.33,2.64-14.26,7.92-17.78c2.82-1.99,5.98-2.99,9.5-2.99
		C213.91,282.49,217.19,283.43,220.01,285.3z M210.15,315.05c5.75,0,8.62-3.93,8.62-11.79c0-7.63-2.88-11.44-8.62-11.44
		c-1.53,0-2.99,0.47-4.4,1.41c-2.58,1.64-3.87,4.99-3.87,10.03v0.7C201.88,311.35,204.64,315.05,210.15,315.05z"/>
	<path class="st0" d="M240.07,282.31c1.29,0,2.46,0.47,3.52,1.41c0.94,0.94,1.41,2.11,1.41,3.52v20.06c0,1.64,0.29,2.99,0.88,4.05
		c0.82,1.53,1.82,2.52,2.99,2.99c1.06,0.35,2.23,0.53,3.52,0.53c2.93,0,4.93-0.88,5.98-2.64l0.53-0.88
		c0.59-1.29,0.88-2.64,0.88-4.05v-20.06c0-1.88,0.82-3.29,2.46-4.22c1.64-0.94,3.17-0.94,4.58,0c1.64,0.94,2.46,2.35,2.46,4.22
		v20.06c-0.7,8.1-4.34,13.38-10.91,15.84c-1.88,0.7-3.87,1.06-5.98,1.06c-5.63,0-10.03-2.11-13.2-6.34
		c-0.59-0.7-1.12-1.47-1.58-2.29c-1.41-2.7-2.11-5.46-2.11-8.27v-20.06c0-2.11,0.88-3.58,2.64-4.4
		C238.72,282.49,239.37,282.31,240.07,282.31z"/>
	<path class="st0" d="M277.39,299.56c0-4.11,1.23-7.68,3.7-10.74c2.93-3.75,7.22-5.63,12.85-5.63c8.45,0.82,13.67,4.63,15.66,11.44
		c0.35,1.53,0.58,3.17,0.7,4.93v20.06c0,1.88-0.88,3.23-2.64,4.05c-0.7,0.35-1.35,0.53-1.94,0.53c-2,0-3.34-0.94-4.05-2.82
		c-0.24-0.59-0.35-1.17-0.35-1.76v-20.06c-0.24-4.34-2.7-6.75-7.39-7.22c-3.99,0-6.4,1.88-7.22,5.63c-0.12,0.59-0.18,1.12-0.18,1.58
		v20.06c0,1.88-0.94,3.23-2.82,4.05c-0.47,0.35-1.06,0.53-1.76,0.53c-2,0-3.4-0.94-4.22-2.82c-0.24-0.59-0.35-1.17-0.35-1.76V299.56
		z"/>
	<path class="st0" d="M335.46,282.31c3.64,0,6.92,0.94,9.86,2.82c1.52,1.06,2.29,2.46,2.29,4.22c-0.24,1.88-1.17,3.23-2.82,4.05
		c-1.64,0.7-3.17,0.53-4.58-0.53c-1.29-0.7-2.88-1.06-4.75-1.06c-1.53,0-2.99,0.41-4.4,1.23c-2.58,1.76-3.87,5.1-3.87,10.03v0.18
		c0,5.28,1.23,8.74,3.7,10.38c1.29,0.82,2.82,1.23,4.58,1.23c1.88,0,3.46-0.41,4.75-1.23c1.41-1.17,2.93-1.35,4.58-0.53
		c1.64,0.82,2.58,2.17,2.82,4.05c0,1.88-0.76,3.23-2.29,4.05c-2.93,2-6.22,2.99-9.86,2.99s-6.81-0.94-9.5-2.82
		c-5.4-3.4-8.1-9.5-8.1-18.3c0-7.51,2.29-13.14,6.86-16.9C327.66,283.6,331.24,282.31,335.46,282.31z"/>
	<path class="st0" d="M381.05,313.46c1.41-1.17,2.99-1.47,4.75-0.88c1.53,0.7,2.41,2,2.64,3.87c0.35,1.76-0.24,3.17-1.76,4.22
		c-1.64,1.41-3.7,2.41-6.16,2.99c-1.76,0.35-4.69,0.47-8.8,0.35c-2.93,0-5.81-1-8.62-2.99c-5.16-3.75-7.92-9.44-8.27-17.07
		c-0.12-0.58-0.12-1.23,0-1.94c0.35-7.98,3.11-13.67,8.27-17.07c2.82-1.99,6.04-2.99,9.68-2.99c2.7,0,5.1,0.59,7.22,1.76
		c5.63,3.52,8.45,9.39,8.45,17.6v1.76c0,0.59-0.12,1.17-0.35,1.76c-0.7,1.88-2.11,2.82-4.22,2.82h-19.18
		c0.82,3.99,3.17,6.28,7.04,6.86h1.58C377.41,314.52,379.99,314.17,381.05,313.46z M372.25,291.46h-0.53
		c-1.06,0-2.23,0.35-3.52,1.06c-1.88,1.29-3.05,3.23-3.52,5.81h14.43v-0.35c-0.47-2.93-1.64-4.87-3.52-5.81
		c-0.82-0.47-1.82-0.7-2.99-0.7H372.25z"/>
	<path class="st0" d="M426.98,324.02c-0.94,1.06-2.11,1.52-3.52,1.41c-2.11-0.12-3.52-1.12-4.22-2.99
		c-3.64,1.88-7.63,2.11-11.97,0.7c-1.06-0.47-2.05-1-2.99-1.58c-3.87-2.46-6.34-6.16-7.39-11.09c-1.64-7.74-0.65-14.31,2.99-19.71
		c3.29-4.46,7.57-6.69,12.85-6.69c2.23,0,4.46,0.59,6.69,1.76c1.06,0.59,2.05,1.29,2.99,2.11c3.52,3.17,5.46,7.51,5.81,13.02v17.95
		C428.21,321.27,427.8,322.97,426.98,324.02z M410.44,293.93c-2.35,0.7-3.76,2.23-4.22,4.58c-0.94,3.52-0.94,7.1,0,10.74
		c0,0.47,0.12,0.94,0.35,1.41c0.94,2.23,2.58,3.52,4.93,3.87c1.41,0.12,2.52,0.06,3.34-0.18c2.35-0.94,3.7-3.34,4.05-7.21
		c0.12-5.4-0.23-8.86-1.06-10.38c-1.29-2.11-3.11-3.17-5.46-3.17C411.79,293.58,411.14,293.69,410.44,293.93z"/>
	<path class="st0" d="M445.11,322.44c-5.75-3.29-8.62-9.09-8.62-17.42v-33.97c0-0.82,0.18-1.52,0.53-2.11
		c0.7-1.88,2.05-2.82,4.05-2.82c1.29,0,2.41,0.53,3.34,1.58c0.94,0.82,1.41,1.94,1.41,3.34v13.2c2.11-0.82,4.58-1.41,7.39-1.76
		c3.75,0,7.16,1.35,10.21,4.05c4.46,3.76,6.69,9.33,6.69,16.72c0,1.53-0.12,2.93-0.35,4.22c-0.94,6.45-3.52,11.09-7.74,13.9
		c-2.58,1.76-5.28,2.7-8.1,2.82h-0.7C450.51,324.43,447.81,323.85,445.11,322.44z M445.99,308.36c0.59,4.46,2.82,6.69,6.69,6.69
		h0.53c1.17-0.12,2.35-0.59,3.52-1.41c2.7-1.88,4.05-5.34,4.05-10.38c0-5.04-1.35-8.45-4.05-10.21c-0.94-0.59-2.11-1-3.52-1.23
		c-1.29,0-2.58,0.35-3.87,1.06c-0.47,0.24-0.82,0.41-1.06,0.53c-1.64,1.06-2.46,2.99-2.46,5.81v5.81
		C445.81,306.19,445.87,307.3,445.99,308.36z"/>
	<path class="st0" d="M487.35,319.62c0,0.59-0.12,1.17-0.35,1.76c-0.82,1.76-2.23,2.64-4.22,2.64c-0.7,0-1.35-0.12-1.94-0.35
		c-1.76-0.82-2.64-2.17-2.64-4.05V271.4c0-0.82,0.12-1.52,0.35-2.11c0.94-1.76,2.35-2.64,4.22-2.64c0.7,0,1.29,0.12,1.76,0.35
		c1.88,0.82,2.82,2.29,2.82,4.4V319.62z"/>
	<path class="st0" d="M521.32,313.46c1.41-1.17,2.99-1.47,4.75-0.88c1.53,0.7,2.41,2,2.64,3.87c0.35,1.76-0.23,3.17-1.76,4.22
		c-1.64,1.41-3.7,2.41-6.16,2.99c-1.76,0.35-4.69,0.47-8.8,0.35c-2.93,0-5.81-1-8.62-2.99c-5.16-3.75-7.92-9.44-8.27-17.07
		c-0.12-0.58-0.12-1.23,0-1.94c0.35-7.98,3.11-13.67,8.27-17.07c2.82-1.99,6.04-2.99,9.68-2.99c2.7,0,5.1,0.59,7.22,1.76
		c5.63,3.52,8.45,9.39,8.45,17.6v1.76c0,0.59-0.12,1.17-0.35,1.76c-0.7,1.88-2.11,2.82-4.22,2.82h-19.18
		c0.82,3.99,3.17,6.28,7.04,6.86h1.58C517.68,314.52,520.26,314.17,521.32,313.46z M512.52,291.46h-0.53
		c-1.06,0-2.23,0.35-3.52,1.06c-1.88,1.29-3.05,3.23-3.52,5.81h14.43v-0.35c-0.47-2.93-1.64-4.87-3.52-5.81
		c-0.82-0.47-1.82-0.7-2.99-0.7H512.52z"/>
</g>
</svg>
